<svg width="140" height="140" viewBox="0 0 140 140" fill="none" xmlns="http://www.w3.org/2000/svg">
<path d="M76.9956 3.37097L78.3931 3.5923L79.9362 7.63634L80.0239 7.65022L82.7407 4.2809L84.1381 4.50224L80.3953 8.98659L79.8889 12.1876L78.6624 11.9934L79.1694 8.79235L76.9956 3.37097Z" fill="white"/>
<path d="M85.6875 13.431L88.2384 5.57959L93.1611 7.17898L92.8294 8.19877L89.0916 6.98424L88.3147 9.37654L91.7958 10.5076L91.4653 11.5235L87.9843 10.3925L87.2035 12.7962L90.9873 14.0257L90.6556 15.0454L85.6875 13.431Z" fill="white"/>
<path d="M94.4031 16.6118L93.2251 16.0115L99.6203 10.0045L100.902 10.6578L99.8019 19.3623L98.6239 18.7621L99.6115 11.6829L99.5535 11.6536L94.4031 16.6118ZM96.0686 13.8319L99.8902 15.7791L99.4141 16.7129L95.5931 14.7657L96.0686 13.8319Z" fill="white"/>
<path d="M102.146 20.8609L106.998 14.1821L109.379 15.9118C109.896 16.2877 110.261 16.6888 110.473 17.1151C110.687 17.5429 110.764 17.9761 110.704 18.4145C110.647 18.8508 110.468 19.2744 110.17 19.6853C109.873 20.094 109.526 20.3914 109.128 20.5775C108.734 20.7631 108.303 20.8169 107.835 20.7391C107.369 20.6629 106.877 20.4368 106.359 20.0609L104.556 18.7506L105.186 17.8831L106.898 19.127C107.224 19.364 107.523 19.5099 107.796 19.5649C108.07 19.6215 108.32 19.5954 108.546 19.4866C108.771 19.3778 108.974 19.1985 109.155 18.9484C109.339 18.6962 109.449 18.4422 109.485 18.1863C109.524 17.932 109.475 17.6809 109.34 17.433C109.208 17.1846 108.976 16.9394 108.643 16.6978L107.378 15.7784L103.153 21.5931L102.146 20.8609ZM107.632 20.2431L107.093 24.4553L105.945 23.6213L106.517 19.4328L107.632 20.2431Z" fill="white"/>
<path d="M116.925 25.3754C117.164 25.0752 117.248 24.7408 117.176 24.3721C117.105 24.0015 116.903 23.6491 116.568 23.3146C116.329 23.0752 116.083 22.9061 115.833 22.8072C115.584 22.7065 115.346 22.6733 115.117 22.7075C114.893 22.7417 114.699 22.8415 114.533 23.0068C114.395 23.1455 114.307 23.2975 114.271 23.4628C114.237 23.6301 114.239 23.8011 114.277 23.9759C114.318 24.1507 114.378 24.3227 114.456 24.4918C114.536 24.659 114.619 24.8139 114.704 24.9564L115.126 25.6747C115.267 25.9065 115.396 26.1593 115.513 26.4329C115.631 26.7066 115.71 26.9907 115.751 27.2852C115.79 27.5797 115.768 27.8723 115.682 28.1631C115.599 28.4557 115.425 28.7332 115.163 28.9954C114.832 29.326 114.453 29.5341 114.026 29.6196C113.6 29.707 113.152 29.6633 112.681 29.4885C112.211 29.3156 111.749 29.0011 111.293 28.545C110.856 28.1079 110.547 27.6605 110.366 27.2025C110.185 26.7445 110.132 26.298 110.206 25.8628C110.282 25.4258 110.487 25.022 110.819 24.6515L111.702 25.535C111.509 25.7631 111.402 26.0073 111.381 26.2676C111.364 26.5279 111.415 26.7863 111.535 27.0429C111.658 27.2994 111.833 27.5408 112.059 27.7669C112.308 28.0158 112.568 28.1983 112.84 28.3142C113.116 28.4301 113.38 28.4738 113.632 28.4453C113.887 28.4149 114.11 28.3046 114.299 28.1146C114.472 27.9417 114.564 27.7508 114.576 27.5417C114.59 27.3346 114.549 27.1113 114.453 26.8718C114.36 26.6344 114.237 26.3835 114.082 26.1194L113.581 25.2415C113.241 24.6467 113.058 24.0889 113.031 23.5683C113.007 23.0495 113.197 22.5868 113.604 22.1802C113.941 21.8438 114.325 21.6415 114.759 21.573C115.192 21.5046 115.633 21.5569 116.083 21.7298C116.536 21.9008 116.958 22.1821 117.349 22.5735C117.745 22.9688 118.024 23.3869 118.187 23.8277C118.352 24.2704 118.401 24.7008 118.333 25.1189C118.266 25.535 118.08 25.9037 117.774 26.2248L116.925 25.3754Z" fill="white"/>
<path d="M127.597 44.7652C126.812 45.1654 126.064 45.3658 125.352 45.3664C124.643 45.3658 124.009 45.1927 123.45 44.8472C122.895 44.5029 122.455 44.0134 122.132 43.3789C121.807 42.742 121.669 42.0964 121.715 41.4423C121.765 40.7893 122 40.1752 122.419 39.5999C122.837 39.0246 123.438 38.5375 124.221 38.1386C125.007 37.7384 125.754 37.5387 126.463 37.5393C127.174 37.5387 127.808 37.7105 128.363 38.0548C128.922 38.4004 129.364 38.8916 129.688 39.5285C130.012 40.163 130.149 40.8068 130.098 41.4598C130.052 42.114 129.819 42.7286 129.4 43.3039C128.984 43.878 128.383 44.3651 127.597 44.7652ZM127.038 43.6662C127.636 43.3612 128.091 43.0074 128.401 42.6048C128.715 42.2034 128.893 41.7814 128.933 41.3388C128.976 40.8974 128.891 40.466 128.676 40.0446C128.46 39.6208 128.16 39.2968 127.778 39.0725C127.397 38.847 126.952 38.7422 126.441 38.7581C125.934 38.7752 125.382 38.9362 124.783 39.2413C124.184 39.5462 123.728 39.8994 123.414 40.3008C123.103 40.7034 122.926 41.1254 122.883 41.5668C122.841 42.007 122.929 42.439 123.145 42.8628C123.359 43.2843 123.657 43.6077 124.037 43.8332C124.421 44.0598 124.867 44.1646 125.374 44.1475C125.884 44.1316 126.439 43.9712 127.038 43.6662Z" fill="white"/>
<path d="M124.987 49.4407L132.839 46.8896L134.42 51.7584L133.401 52.0898L132.204 48.4056L129.812 49.1829L130.895 52.5182L129.879 52.8484L128.796 49.513L125.372 50.6254L124.987 49.4407Z" fill="white"/>
<path d="M128.648 67.4384H136.904V72.6146H135.832V68.6838H133.316V72.344H132.248V68.6838H129.721V72.6625H128.648V67.4384Z" fill="white"/>
<path d="M136.395 78.4801L132.897 79.9261L132.887 79.9898L135.767 82.4461L135.541 83.8713L131.867 80.6854L127.385 82.5956L127.612 81.1622L131.067 79.7016L131.077 79.6379L128.242 77.181L128.469 75.7476L132.135 78.9934L136.621 77.0549L136.395 78.4801Z" fill="white"/>
<path d="M126.667 85.3867L134.519 87.9383L133.609 90.7364C133.411 91.3474 133.135 91.8173 132.783 92.1464C132.43 92.4756 132.028 92.6768 131.577 92.7506C131.129 92.8256 130.665 92.7853 130.184 92.6289C129.701 92.4718 129.3 92.2297 128.979 91.9024C128.661 91.5783 128.455 91.1784 128.361 90.701C128.269 90.2274 128.322 89.687 128.52 89.0784L129.145 87.1537L130.149 87.4804L129.559 89.2973C129.433 89.6832 129.398 90.0181 129.453 90.3018C129.51 90.5856 129.637 90.8221 129.833 91.01C130.029 91.198 130.275 91.3405 130.572 91.4364C130.869 91.5328 131.15 91.5625 131.417 91.5246C131.683 91.4868 131.921 91.3676 132.13 91.1671C132.339 90.9691 132.507 90.6733 132.634 90.2798L133.118 88.7928L126.283 86.5717L126.667 85.3867Z" fill="white"/>
<path d="M123.42 94.3436L130.775 98.0915L128.426 102.703L127.47 102.216L129.255 98.7145L127.014 97.5725L125.352 100.834L124.4 100.349L126.062 97.0875L123.81 95.9404L122.003 99.4852L121.048 98.9983L123.42 94.3436Z" fill="white"/>
<path d="M119.139 102.146L125.818 106.998L124.088 109.379C123.712 109.896 123.311 110.261 122.884 110.473C122.456 110.687 122.024 110.764 121.585 110.705C121.149 110.647 120.725 110.468 120.314 110.17C119.905 109.873 119.608 109.525 119.422 109.128C119.236 108.734 119.183 108.303 119.26 107.835C119.337 107.369 119.563 106.877 119.939 106.36L121.249 104.556L122.116 105.186L120.873 106.898C120.636 107.224 120.489 107.524 120.434 107.796C120.378 108.071 120.404 108.32 120.513 108.545C120.622 108.771 120.801 108.974 121.051 109.156C121.303 109.339 121.557 109.448 121.813 109.485C122.067 109.523 122.319 109.476 122.567 109.34C122.815 109.208 123.06 108.976 123.302 108.643L124.221 107.378L118.406 103.154L119.139 102.146ZM119.757 107.632L115.544 107.093L116.378 105.945L120.567 106.517L119.757 107.632Z" fill="white"/>
<path d="M116.901 117.714L111.063 111.876L111.944 110.996L117.782 116.833L116.901 117.714Z" fill="white"/>
<path d="M106.546 115.941L111.398 122.62L107.211 125.662L106.581 124.795L109.76 122.485L108.282 120.45L105.321 122.601L104.692 121.737L107.654 119.585L106.168 117.541L102.949 119.879L102.319 119.012L106.546 115.941Z" fill="white"/>
<path d="M97.5623 131.044L93.8145 123.688L94.8342 123.168L101.322 126.658L101.39 126.624L98.6413 121.229L99.7512 120.663L103.499 128.019L102.472 128.543L95.9769 125.048L95.9088 125.082L98.6615 130.484L97.5623 131.044Z" fill="white"/>
<path d="M86.6592 132.113L87.8555 131.724C87.9847 131.965 88.143 132.162 88.3316 132.315C88.5201 132.469 88.727 132.584 88.9521 132.661C89.1779 132.737 89.4144 132.773 89.6616 132.769C89.9063 132.766 90.1541 132.724 90.4045 132.642C90.8566 132.495 91.2249 132.25 91.5087 131.906C91.79 131.563 91.9628 131.138 92.0271 130.631C92.0889 130.126 92.017 129.556 91.8108 128.922C91.6033 128.283 91.3258 127.777 90.9783 127.403C90.6283 127.031 90.238 126.791 89.8073 126.682C89.3765 126.573 88.937 126.592 88.4899 126.737C88.242 126.817 88.0175 126.927 87.817 127.066C87.6146 127.208 87.4443 127.375 87.3055 127.567C87.1674 127.759 87.0672 127.971 87.0041 128.203C86.9392 128.439 86.9234 128.69 86.9562 128.956L85.7586 129.341C85.6974 128.934 85.7056 128.539 85.7845 128.154C85.8614 127.773 86.0046 127.419 86.2146 127.09C86.4227 126.766 86.6888 126.48 87.0123 126.234C87.3365 125.987 87.7142 125.794 88.1462 125.653C88.826 125.432 89.4844 125.397 90.1207 125.546C90.7576 125.698 91.3277 126.025 91.8303 126.529C92.3304 127.034 92.7164 127.703 92.9875 128.539C93.26 129.378 93.3407 130.147 93.2291 130.847C93.1181 131.55 92.8494 132.149 92.4225 132.644C91.9962 133.141 91.4444 133.499 90.7671 133.72C90.3509 133.855 89.9428 133.921 89.543 133.918C89.1419 133.918 88.7598 133.851 88.3965 133.715C88.0333 133.581 87.7041 133.38 87.4077 133.112C87.1126 132.846 86.8629 132.513 86.6592 132.113Z" fill="white"/>
<path d="M81.7054 127.526L82.9963 135.68L77.8844 136.49L77.7166 135.43L81.5988 134.816L81.2053 132.332L77.5899 132.904L77.4228 131.849L81.0382 131.276L80.6428 128.78L76.7127 129.402L76.5449 128.343L81.7054 127.526Z" fill="white"/>
<path d="M63.0045 136.629L61.607 136.408L60.064 132.364L59.9764 132.35L57.2593 135.719L55.8618 135.498L59.6044 131.013L60.1114 127.812L61.3377 128.007L60.8307 131.208L63.0045 136.629Z" fill="white"/>
<path d="M54.3129 126.569L51.7618 134.42L46.8394 132.821L47.1707 131.801L50.9086 133.016L51.6858 130.624L48.2048 129.492L48.5349 128.477L52.016 129.608L52.797 127.204L49.0131 125.974L49.3444 124.954L54.3129 126.569Z" fill="white"/>
<path d="M45.5968 123.388L46.7749 123.988L40.3799 129.996L39.0977 129.342L40.1985 120.638L41.3766 121.238L40.3891 128.317L40.4465 128.347L45.5968 123.388ZM43.9316 126.168L40.1101 124.221L40.5859 123.287L44.4074 125.234L43.9316 126.168Z" fill="white"/>
<path d="M37.8546 119.139L33.002 125.818L30.6214 124.089C30.104 123.712 29.7394 123.311 29.5275 122.885C29.3136 122.457 29.2363 122.024 29.2958 121.586C29.3537 121.149 29.5319 120.725 29.8304 120.315C30.1274 119.906 30.4747 119.609 30.8723 119.423C31.2662 119.237 31.6973 119.183 32.1656 119.261C32.6317 119.337 33.1234 119.563 33.6409 119.939L35.4443 121.249L34.814 122.117L33.1019 120.873C32.7758 120.636 32.4766 120.49 32.2044 120.435C31.9299 120.379 31.6801 120.404 31.4549 120.514C31.2297 120.622 31.0263 120.802 30.8446 121.051C30.6614 121.304 30.5515 121.558 30.5151 121.814C30.4765 122.068 30.5249 122.319 30.6604 122.567C30.7921 122.815 31.0243 123.061 31.3569 123.302L32.6223 124.222L36.8469 118.407L37.8546 119.139ZM32.3682 119.757L32.9074 115.545L34.0553 116.378L33.4835 120.567L32.3682 119.757Z" fill="white"/>
<path d="M23.0753 114.625C22.8359 114.925 22.7523 115.259 22.8245 115.628C22.8948 115.998 23.0972 116.351 23.4316 116.686C23.671 116.925 23.9162 117.094 24.167 117.193C24.4159 117.294 24.6544 117.327 24.8824 117.292C25.1067 117.258 25.3014 117.159 25.4668 116.993C25.6055 116.855 25.6929 116.703 25.729 116.537C25.7632 116.37 25.7613 116.199 25.7233 116.024C25.6815 115.849 25.6216 115.677 25.5437 115.508C25.4639 115.341 25.3813 115.186 25.2958 115.043L24.8739 114.325C24.7333 114.094 24.6041 113.841 24.4862 113.567C24.3684 113.293 24.2896 113.01 24.2497 112.715C24.2098 112.421 24.2326 112.127 24.3181 111.837C24.4017 111.544 24.5746 111.267 24.8369 111.005C25.1675 110.674 25.5466 110.466 25.9741 110.381C26.3998 110.293 26.8483 110.337 27.3195 110.512C27.7888 110.685 28.2516 110.999 28.7076 111.455C29.1447 111.892 29.4535 112.339 29.634 112.798C29.8145 113.256 29.8677 113.702 29.7936 114.137C29.7176 114.574 29.5134 114.978 29.1808 115.349L28.2972 114.465C28.491 114.237 28.5984 113.993 28.6193 113.732C28.6363 113.472 28.5851 113.214 28.4654 112.957C28.3418 112.701 28.167 112.459 27.9409 112.233C27.692 111.984 27.4316 111.802 27.1599 111.686C26.8843 111.57 26.6202 111.526 26.3675 111.555C26.1129 111.585 25.8905 111.695 25.7005 111.885C25.5276 112.059 25.4354 112.249 25.424 112.458C25.4107 112.665 25.4516 112.889 25.5466 113.128C25.6397 113.366 25.7632 113.616 25.9171 113.881L26.4188 114.758C26.759 115.353 26.9423 115.911 26.9689 116.431C26.9936 116.95 26.8027 117.413 26.396 117.82C26.0596 118.156 25.6748 118.359 25.2416 118.427C24.8084 118.496 24.3665 118.443 23.9162 118.27C23.4639 118.099 23.0421 117.818 22.6506 117.427C22.2554 117.031 21.976 116.613 21.8126 116.172C21.6473 115.73 21.5988 115.299 21.6672 114.881C21.7338 114.465 21.92 114.096 22.2259 113.775L23.0753 114.625Z" fill="white"/>
<path d="M12.4029 95.2347C13.1882 94.8348 13.9367 94.6343 14.6482 94.6337C15.3572 94.6343 15.9913 94.8071 16.5504 95.1527C17.1059 95.497 17.5453 95.9864 17.8686 96.6208C18.1931 97.2577 18.332 97.9035 18.2853 98.5575C18.235 99.2108 18.0005 99.825 17.5818 100.4C17.1631 100.975 16.5622 101.462 15.7792 101.861C14.9939 102.262 14.2467 102.461 13.5375 102.46C12.8261 102.461 12.1926 102.29 11.6371 101.945C11.078 101.6 10.6363 101.108 10.3117 100.471C9.98842 99.837 9.85189 99.1931 9.90228 98.5404C9.94894 97.8858 10.1816 97.2716 10.6003 96.6958C11.0167 96.122 11.6175 95.6351 12.4029 95.2347ZM12.9629 96.3338C12.3643 96.6391 11.9096 96.9929 11.599 97.3952C11.2847 97.7963 11.1077 98.2188 11.0677 98.6609C11.0242 99.1023 11.1098 99.5343 11.3245 99.9556C11.5405 100.379 11.8398 100.703 12.2225 100.927C12.6028 101.153 13.0483 101.258 13.559 101.242C14.066 101.225 14.6188 101.064 15.2175 100.759C15.8161 100.454 16.2725 100.101 16.5867 99.6989C16.8974 99.2965 17.0744 98.8747 17.118 98.4332C17.1591 97.993 17.0717 97.5611 16.8557 97.1373C16.641 96.716 16.3435 96.3925 15.9632 96.1667C15.5793 95.9403 15.1338 95.8356 14.6268 95.8527C14.1161 95.8684 13.5614 96.0286 12.9629 96.3338Z" fill="white"/>
<path d="M15.0135 90.5592L7.16205 93.1101L5.58008 88.2416L6.59985 87.9099L7.79691 91.5946L10.1891 90.8171L9.10547 87.4817L10.1214 87.1519L11.2051 90.4873L14.6286 89.3748L15.0135 90.5592Z" fill="white"/>
<path d="M11.3512 72.5617H3.09571L3.0957 67.3855H4.16796V71.3162H6.68331V67.656H7.75154V71.3162H10.279V67.3375H11.3512V72.5617Z" fill="white"/>
<path d="M3.60515 61.5196L7.10322 60.0738L7.11331 60.0101L4.23321 57.5541L4.45896 56.1288L8.13361 59.3147L12.6154 57.4043L12.3884 58.8376L8.93281 60.2983L8.92272 60.362L11.7578 62.819L11.5308 64.2524L7.86559 61.0067L3.37939 62.945L3.60515 61.5196Z" fill="white"/>
<path d="M13.3329 54.613L5.48145 52.0619L6.39077 49.2633C6.58923 48.6525 6.86488 48.1826 7.21759 47.8536C7.5703 47.5246 7.97201 47.3231 8.42273 47.2491C8.87091 47.1743 9.33519 47.215 9.81573 47.3711C10.2987 47.528 10.7004 47.7702 11.0207 48.0975C11.3394 48.4214 11.5455 48.8218 11.6392 49.2987C11.7312 49.7723 11.6784 50.3131 11.4807 50.9214L10.8554 52.8459L9.85098 52.5196L10.4414 50.7024C10.5668 50.3165 10.6021 49.9818 10.5473 49.6983C10.4898 49.4141 10.3631 49.1779 10.1671 48.9899C9.97105 48.8019 9.72479 48.6597 9.42833 48.5634C9.13181 48.467 8.85029 48.4378 8.58373 48.4755C8.31716 48.5132 8.07928 48.6323 7.87004 48.8327C7.66162 49.0306 7.49349 49.3263 7.3656 49.72L6.88228 51.2074L13.7178 53.4285L13.3329 54.613Z" fill="white"/>
<path d="M16.5808 45.6565L9.2251 41.9086L11.5749 37.2969L12.5303 37.7837L10.746 41.2856L12.9872 42.4275L14.6488 39.1663L15.6006 39.6512L13.939 42.9125L16.1909 44.0599L17.9972 40.5149L18.9526 41.0017L16.5808 45.6565Z" fill="white"/>
<path d="M20.8615 37.8542L14.1826 33.0017L15.9123 30.621C16.2882 30.1036 16.6893 29.739 17.1156 29.5272C17.5434 29.3132 17.9766 29.2359 18.4151 29.2954C18.8514 29.3533 19.275 29.5315 19.6858 29.83C20.0946 30.127 20.392 30.4743 20.5781 30.8719C20.7636 31.2658 20.8175 31.6969 20.7397 32.1652C20.6634 32.6313 20.4373 33.1231 20.0614 33.6405L18.7511 35.4439L17.8837 34.8137L19.1276 33.1016C19.3645 32.7755 19.5105 32.4762 19.5655 32.204C19.6221 31.9295 19.5959 31.6797 19.4872 31.4545C19.3784 31.2293 19.199 31.0259 18.949 30.8442C18.6968 30.661 18.4427 30.5512 18.1869 30.5147C17.9325 30.4761 17.6815 30.5246 17.4336 30.66C17.185 30.7918 16.94 31.0239 16.6983 31.3566L15.779 32.6219L21.5937 36.8465L20.8615 37.8542ZM20.2436 32.3678L24.4558 32.907L23.6218 34.0549L19.4333 33.4832L20.2436 32.3678Z" fill="white"/>
<path d="M23.099 22.2833L28.9366 28.1209L28.0558 29.0016L22.2183 23.1641L23.099 22.2833Z" fill="white"/>
<path d="M33.455 24.0564L28.6025 17.3776L32.7899 14.3353L33.4201 15.2028L30.2405 17.5129L31.719 19.5479L34.6801 17.3965L35.308 18.2607L32.3468 20.4121L33.8324 22.4568L37.0512 20.1183L37.6815 20.9858L33.455 24.0564Z" fill="white"/>
<path d="M42.438 8.95593L46.1859 16.3117L45.1658 16.8314L38.6782 13.3418L38.61 13.3766L41.3587 18.7713L40.2489 19.3367L36.501 11.981L37.5281 11.4576L44.0231 14.9526L44.0913 14.9179L41.3389 9.51593L42.438 8.95593Z" fill="white"/>
<path d="M53.3407 7.88729L52.1446 8.27595C52.0156 8.0353 51.8569 7.83823 51.6686 7.68467C51.4802 7.53111 51.2733 7.41608 51.0478 7.33959C50.8223 7.26309 50.5859 7.22689 50.3386 7.23093C50.0938 7.23421 49.8462 7.27652 49.5957 7.35788C49.1433 7.50488 48.7752 7.75019 48.4913 8.09395C48.2099 8.43682 48.0372 8.86174 47.973 9.36858C47.9113 9.87466 47.9835 10.4446 48.1894 11.0784C48.397 11.7174 48.6745 12.2234 49.0218 12.5966C49.3717 12.9689 49.762 13.2094 50.193 13.3181C50.6239 13.4267 51.0629 13.4084 51.5102 13.263C51.7581 13.1825 51.9824 13.0729 52.1832 12.9342C52.3857 12.7921 52.5561 12.6252 52.6943 12.4333C52.8326 12.2414 52.9332 12.0293 52.9962 11.7969C53.0609 11.5612 53.0768 11.3102 53.044 11.0439L54.2414 10.6591C54.3029 11.0658 54.2943 11.4613 54.2158 11.8457C54.1389 12.2267 53.9956 12.5813 53.7858 12.9094C53.5776 13.2342 53.3116 13.5198 52.9877 13.7663C52.6637 14.0129 52.2857 14.2063 51.8538 14.3467C51.174 14.5676 50.5159 14.6034 49.8797 14.454C49.2426 14.3022 48.6727 13.9745 48.17 13.471C47.6699 12.9666 47.284 12.2966 47.0125 11.4608C46.7401 10.6225 46.6597 9.85322 46.7713 9.15297C46.882 8.45013 47.1508 7.85134 47.5778 7.35655C48.0039 6.85924 48.5556 6.5006 49.2329 6.2805C49.6495 6.14514 50.0576 6.07898 50.4569 6.08201C50.8581 6.08166 51.2404 6.14957 51.6039 6.28575C51.9667 6.41937 52.2962 6.62035 52.5924 6.88856C52.8878 7.15425 53.1373 7.48715 53.3407 7.88729Z" fill="white"/>
<path d="M58.2959 12.4738L57.0044 4.31992L62.1165 3.51025L62.2843 4.5693L58.4024 5.18412L58.7959 7.66849L62.411 7.09594L62.5781 8.15098L58.963 8.7236L59.3583 11.2199L63.2883 10.5975L63.4554 11.6566L58.2959 12.4738Z" fill="white"/>
</svg>
